<?xml version="1.0" encoding="iso-8859-1"?>
<!-- Generator: Adobe Illustrator 18.0.0, SVG Export Plug-In . SVG Version: 6.00 Build 0)  -->
<!DOCTYPE svg PUBLIC "-//W3C//DTD SVG 1.1//EN" "http://www.w3.org/Graphics/SVG/1.1/DTD/svg11.dtd">
<svg version="1.1" id="Capa_1" xmlns="http://www.w3.org/2000/svg" xmlns:xlink="http://www.w3.org/1999/xlink" x="0px" y="0px"
	 viewBox="0 0 59.248 59.248" style="enable-background:new 0 0 59.248 59.248;" xml:space="preserve">
<g>
	<path d="M46.248,32.124c-7.168,0-13,5.832-13,13s5.832,13,13,13s13-5.832,13-13S53.417,32.124,46.248,32.124z M46.248,56.124
		c-6.065,0-11-4.935-11-11s4.935-11,11-11s11,4.935,11,11S52.313,56.124,46.248,56.124z"/>
	<path d="M51.198,40.175c-0.391-0.391-1.023-0.391-1.414,0l-3.536,3.535l-3.536-3.535c-0.391-0.391-1.023-0.391-1.414,0
		s-0.391,1.023,0,1.414l3.536,3.535l-3.536,3.535c-0.391,0.391-0.391,1.023,0,1.414c0.195,0.195,0.451,0.293,0.707,0.293
		s0.512-0.098,0.707-0.293l3.536-3.535l3.536,3.535c0.195,0.195,0.451,0.293,0.707,0.293s0.512-0.098,0.707-0.293
		c0.391-0.391,0.391-1.023,0-1.414l-3.536-3.535l3.536-3.535C51.588,41.198,51.588,40.565,51.198,40.175z"/>
	<polygon points="0,32.337 25.147,57.538 31.289,51.412 6.115,26.238 	"/>
	<path d="M29.415,45.124c0-8.822,7.178-16,16-16c2.402,0,4.673,0.547,6.719,1.499l4.281-4.27V12.213L45.3,1.124H31.295L7.531,24.826
		l21.973,21.973C29.446,46.248,29.415,45.69,29.415,45.124z M42.43,10.124c2.17,0,3.935,1.766,3.935,3.936s-1.765,3.935-3.935,3.935
		s-3.935-1.765-3.935-3.935S40.26,10.124,42.43,10.124z"/>
</g>
<g>
</g>
<g>
</g>
<g>
</g>
<g>
</g>
<g>
</g>
<g>
</g>
<g>
</g>
<g>
</g>
<g>
</g>
<g>
</g>
<g>
</g>
<g>
</g>
<g>
</g>
<g>
</g>
<g>
</g>
</svg>
